<svg xmlns="http://www.w3.org/2000/svg" version="1.1" xmlns:xlink="http://www.w3.org/1999/xlink" xmlns:svgjs="http://svgjs.dev/svgjs" viewBox="0 0 800 800"><g stroke="hsl(0, 0%, 90%)" fill="none" stroke-linecap="round"><circle r="493" cx="400" cy="400" stroke-width="11" stroke-dasharray="37 40" stroke-dashoffset="25" transform="rotate(323, 400, 400)" opacity="0.05"></circle><circle r="464" cx="400" cy="400" stroke-width="11" stroke-dasharray="19 10" stroke-dashoffset="25" transform="rotate(256, 400, 400)" opacity="0.11"></circle><circle r="435" cx="400" cy="400" stroke-width="10" stroke-dasharray="11 28" stroke-dashoffset="25" transform="rotate(157, 400, 400)" opacity="0.17"></circle><circle r="406" cx="400" cy="400" stroke-width="10" stroke-dasharray="26 43" stroke-dashoffset="25" transform="rotate(32, 400, 400)" opacity="0.23"></circle><circle r="377" cx="400" cy="400" stroke-width="10" stroke-dasharray="51 19" stroke-dashoffset="25" transform="rotate(88, 400, 400)" opacity="0.29"></circle><circle r="348" cx="400" cy="400" stroke-width="9" stroke-dasharray="49 50" stroke-dashoffset="25" transform="rotate(278, 400, 400)" opacity="0.35"></circle><circle r="319" cx="400" cy="400" stroke-width="9" stroke-dasharray="21 15" stroke-dashoffset="25" transform="rotate(190, 400, 400)" opacity="0.41"></circle><circle r="290" cx="400" cy="400" stroke-width="8" stroke-dasharray="33 16" stroke-dashoffset="25" transform="rotate(82, 400, 400)" opacity="0.47"></circle><circle r="261" cx="400" cy="400" stroke-width="8" stroke-dasharray="13 33" stroke-dashoffset="25" transform="rotate(281, 400, 400)" opacity="0.53"></circle><circle r="232" cx="400" cy="400" stroke-width="8" stroke-dasharray="48 53" stroke-dashoffset="25" transform="rotate(12, 400, 400)" opacity="0.58"></circle><circle r="203" cx="400" cy="400" stroke-width="7" stroke-dasharray="46 25" stroke-dashoffset="25" transform="rotate(238, 400, 400)" opacity="0.64"></circle><circle r="174" cx="400" cy="400" stroke-width="7" stroke-dasharray="52 26" stroke-dashoffset="25" transform="rotate(23, 400, 400)" opacity="0.70"></circle><circle r="145" cx="400" cy="400" stroke-width="7" stroke-dasharray="47 29" stroke-dashoffset="25" transform="rotate(302, 400, 400)" opacity="0.76"></circle><circle r="116" cx="400" cy="400" stroke-width="6" stroke-dasharray="52 50" stroke-dashoffset="25" transform="rotate(260, 400, 400)" opacity="0.82"></circle><circle r="87" cx="400" cy="400" stroke-width="6" stroke-dasharray="36 31" stroke-dashoffset="25" transform="rotate(102, 400, 400)" opacity="0.88"></circle><circle r="58" cx="400" cy="400" stroke-width="5" stroke-dasharray="27 36" stroke-dashoffset="25" transform="rotate(291, 400, 400)" opacity="0.94"></circle><circle r="29" cx="400" cy="400" stroke-width="5" stroke-dasharray="27 52" stroke-dashoffset="25" transform="rotate(66, 400, 400)" opacity="1.00"></circle></g></svg>